<svg id="Group_18" data-name="Group 18" xmlns="http://www.w3.org/2000/svg" width="23" height="34" viewBox="0 0 23 34">
  <g id="Group_15" data-name="Group 15">
    <g id="Group_14" data-name="Group 14">
      <path id="Path_7" data-name="Path 7" d="M87.5,0A11.746,11.746,0,0,0,76,11.953a12.28,12.28,0,0,0,1.717,6.285l9.129,15.29A.951.951,0,0,0,87.66,34h.008a.952.952,0,0,0,.815-.484l8.9-15.439A12.3,12.3,0,0,0,99,11.953,11.746,11.746,0,0,0,87.5,0Zm8.233,17.054L87.645,31.09l-8.3-13.9A10.241,10.241,0,0,1,77.9,11.953a9.6,9.6,0,1,1,19.186,0A10.25,10.25,0,0,1,95.733,17.054Z" transform="translate(-76)" fill="#021c33"/>
    </g>
  </g>
  <g id="Group_17" data-name="Group 17" transform="translate(4.833 4.006)">
    <g id="Group_16" data-name="Group 16">
      <path id="Path_8" data-name="Path 8" d="M172.5,90a6.5,6.5,0,1,0,6.5,6.5A6.507,6.507,0,0,0,172.5,90Zm0,10.848a4.348,4.348,0,1,1,4.341-4.348A4.351,4.351,0,0,1,172.5,100.848Z" transform="translate(-166 -90)" fill="#021c33"/>
    </g>
  </g>
</svg>
