<svg id="Group_13" data-name="Group 13" xmlns="http://www.w3.org/2000/svg" width="27.813" height="25.541" viewBox="0 0 27.813 25.541">
  <path id="Path_4" data-name="Path 4" d="M143.625,144h-10l5,3Zm0,0" transform="translate(-124.719 -134.229)" fill="#021c33"/>
  <path id="Path_5" data-name="Path 5" d="M125.5,156.841a.511.511,0,0,1-.275-.077L120,153.391v6h11v-6l-5.225,3.373A.511.511,0,0,1,125.5,156.841Zm0,0" transform="translate(-111.594 -143.62)" fill="#021c33"/>
  <path id="Path_6" data-name="Path 6" d="M13.906,0C6.226,0,0,5.718,0,12.771S6.226,25.541,13.906,25.541s13.906-5.718,13.906-12.771S21.583.008,13.906,0Zm7.45,17.787a.478.478,0,0,1-.5.456H6.953a.478.478,0,0,1-.5-.456V7.754a.478.478,0,0,1,.5-.456H20.859a.478.478,0,0,1,.5.456Zm0,0" fill="#021c33"/>
</svg>
