<svg id="Group_12" data-name="Group 12" xmlns="http://www.w3.org/2000/svg" width="22.667" height="23.5" viewBox="0 0 22.667 23.5">
  <path id="Shape" d="M8.459,13.526a10.45,10.45,0,0,1-2.2-5.276.93.93,0,0,1,.177-.661L7.832,5.812A.965.965,0,0,0,7.92,4.83L5.7.433A.553.553,0,0,0,4.9.143L1.342,2.284A.852.852,0,0,0,1,3.073,24.963,24.963,0,0,0,6.236,16.364c4.278,5.467,8.63,6.453,10.4,6.691a.606.606,0,0,0,.617-.437l1.675-4.546a.926.926,0,0,0-.225-1.027l-3.441-2.831a.524.524,0,0,0-.769.111L13.1,16.1a.544.544,0,0,1-.517.227,6.836,6.836,0,0,1-4.129-2.806Z" transform="translate(-0.997 0.44)" fill="#021c33"/>
  <path id="Shape-2" data-name="Shape" d="M37.048,20a.952.952,0,0,1-.952-.952A7.151,7.151,0,0,0,28.952,11.9a.952.952,0,0,1,0-1.9A9.058,9.058,0,0,1,38,19.048.952.952,0,0,1,37.048,20Z" transform="translate(-19 -6.44)" fill="#021c33"/>
  <path id="Shape-3" data-name="Shape" d="M39.226,12a.774.774,0,0,1-.774-.774,9.688,9.688,0,0,0-9.677-9.677.774.774,0,0,1,0-1.548A11.238,11.238,0,0,1,40,11.226a.774.774,0,0,1-.774.774Z" transform="translate(-17.333)" fill="#021c33"/>
</svg>
